<svg width="72" height="72" viewBox="0 0 72 72" fill="none" xmlns="http://www.w3.org/2000/svg">
<path fill-rule="evenodd" clip-rule="evenodd" d="M36 11.25C30.6152 11.25 26.25 15.6152 26.25 21C26.25 26.3848 30.6152 30.75 36 30.75C41.3848 30.75 45.75 26.3848 45.75 21C45.75 15.6152 41.3848 11.25 36 11.25ZM21.75 21C21.75 13.1299 28.1299 6.75 36 6.75C43.8701 6.75 50.25 13.1299 50.25 21C50.25 28.8701 43.8701 35.25 36 35.25C28.1299 35.25 21.75 28.8701 21.75 21Z" fill="#999999"/>
<path fill-rule="evenodd" clip-rule="evenodd" d="M36 44.25C25.4774 44.25 19.7712 47.9942 16.8954 52.7019C15.7567 54.5661 16.0843 56.3747 17.4122 57.9177C18.8186 59.5518 21.3009 60.75 24.0001 60.75H48C50.6992 60.75 53.1815 59.5518 54.5879 57.9177C55.9158 56.3747 56.2434 54.5661 55.1047 52.7019C52.2289 47.9942 46.5227 44.25 36 44.25ZM13.0552 50.3561C16.9357 44.0037 24.3058 39.75 36 39.75C47.6943 39.75 55.0644 44.0037 58.9449 50.3561L57.0248 51.529L58.9449 50.3561C61.261 54.1476 60.3899 58.0745 57.9987 60.8531C55.6858 63.5405 51.9284 65.25 48 65.25H24.0001C20.0717 65.25 16.3143 63.5405 14.0014 60.8531C11.6102 58.0745 10.7391 54.1476 13.0552 50.3561Z" fill="#999999"/>
</svg>
