<svg width="72" height="72" viewBox="0 0 72 72" fill="none" xmlns="http://www.w3.org/2000/svg">
<path fill-rule="evenodd" clip-rule="evenodd" d="M41.9336 13.4212C38.4323 10.5263 33.5677 10.5263 30.0664 13.4212L13.9083 26.7809C12.2551 28.1477 11.25 30.288 11.25 32.5989V56.6218C11.25 59.0333 13.0565 60.75 15 60.75H21C23.0711 60.75 24.75 59.0711 24.75 57V47.0544C24.75 42.4207 28.316 38.4261 33 38.4261H39C43.684 38.4261 47.25 42.4207 47.25 47.0544V57C47.25 59.0711 48.9289 60.75 51 60.75H57C58.9435 60.75 60.75 59.0333 60.75 56.6218V32.5989C60.75 30.288 59.7449 28.1477 58.0917 26.7809L41.9336 13.4212ZM27.199 9.95308C32.3644 5.6823 39.6357 5.68231 44.801 9.95308L60.9592 23.3128C63.6906 25.5712 65.25 29.005 65.25 32.5989V56.6218C65.25 61.2554 61.6839 65.25 57 65.25H51C46.4437 65.25 42.75 61.5564 42.75 57V47.0544C42.75 44.6429 40.9435 42.9261 39 42.9261H33C31.0565 42.9261 29.25 44.6429 29.25 47.0544V57C29.25 61.5564 25.5563 65.25 21 65.25H15C10.316 65.25 6.75 61.2554 6.75 56.6218V32.5989C6.75 29.005 8.30939 25.5712 11.0408 23.3128L12.4745 25.0469L11.0408 23.3128L27.199 9.95308L28.6327 11.6871L27.199 9.95308Z" fill="#999999"/>
</svg>
